HIERARCHY
ROOT Hips
{
	OFFSET -0.001795 -0.223333 0.028219
	CHANNELS 6 Xposition Yposition Zposition Zrotation Yrotation Xrotation 
	JOINT LeftUpLeg
	{
		OFFSET 0.069520 -0.091406 -0.006815
		CHANNELS 3 Zrotation Yrotation Xrotation
		JOINT LeftLeg
		{
			OFFSET 0.034277 -0.375199 -0.004496
			CHANNELS 3 Zrotation Yrotation Xrotation
			JOINT LeftFoot
			{
				OFFSET -0.013596 -0.397961 -0.043693
				CHANNELS 3 Zrotation Yrotation Xrotation
				JOINT LeftToe
				{
					OFFSET 0.026358 -0.055791 0.119288
					CHANNELS 3 Zrotation Yrotation Xrotation
					End Site
					{
						OFFSET 0.000000 0.000000 0.000000
					}
				}
			}
		}
	}
	JOINT RightUpLeg
	{
		OFFSET -0.067670 -0.090522 -0.004320
		CHANNELS 3 Zrotation Yrotation Xrotation
		JOINT RightLeg
		{
			OFFSET -0.038290 -0.382569 -0.008850
			CHANNELS 3 Zrotation Yrotation Xrotation
			JOINT RightFoot
			{
				OFFSET 0.015774 -0.398415 -0.042312
				CHANNELS 3 Zrotation Yrotation Xrotation
				JOINT RightToe
				{
					OFFSET -0.025372 -0.048144 0.123348
					CHANNELS 3 Zrotation Yrotation Xrotation
					End Site
					{
						OFFSET 0.000000 0.000000 0.000000
					}
				}
			}
		}
	}
	JOINT Spine
	{
		OFFSET -0.002533 0.108963 -0.026696
		CHANNELS 3 Zrotation Yrotation Xrotation
		JOINT Spine1
		{
			OFFSET 0.005487 0.135180 0.001092
			CHANNELS 3 Zrotation Yrotation Xrotation
			JOINT Spine2
			{
				OFFSET 0.001457 0.052922 0.025425
				CHANNELS 3 Zrotation Yrotation Xrotation
				JOINT Neck
				{
					OFFSET -0.002778 0.213870 -0.042857
					CHANNELS 3 Zrotation Yrotation Xrotation
					JOINT Head
					{
						OFFSET 0.005152 0.064970 0.051349
						CHANNELS 3 Zrotation Yrotation Xrotation
						End Site
						{
							OFFSET 0.000000 0.000000 0.000000
						}
					}
				}
				JOINT LeftShoulder
				{
					OFFSET 0.078845 0.121749 -0.034090
					CHANNELS 3 Zrotation Yrotation Xrotation
					JOINT LeftArm
					{
						OFFSET 0.090977 0.030469 -0.008868
						CHANNELS 3 Zrotation Yrotation Xrotation
						JOINT LeftForeArm
						{
							OFFSET 0.259612 -0.012772 -0.027456
							CHANNELS 3 Zrotation Yrotation Xrotation
							JOINT LeftHand
							{
								OFFSET 0.249234 0.008986 -0.001171
								CHANNELS 3 Zrotation Yrotation Xrotation
								End Site
								{
									OFFSET 0.000000 0.000000 0.000000
								}
							}
						}
					}
				}
				JOINT RightShoulder
				{
					OFFSET -0.081759 0.118833 -0.038615
					CHANNELS 3 Zrotation Yrotation Xrotation
					JOINT RightArm
					{
						OFFSET -0.096012 0.032551 -0.009143
						CHANNELS 3 Zrotation Yrotation Xrotation
						JOINT RightForeArm
						{
							OFFSET -0.253742 -0.013329 -0.021401
							CHANNELS 3 Zrotation Yrotation Xrotation
							JOINT RightHand
							{
								OFFSET -0.255298 0.007772 -0.005559
								CHANNELS 3 Zrotation Yrotation Xrotation
								End Site
								{
									OFFSET 0.000000 0.000000 0.000000
								}
							}
						}
					}
				}
			}
		}
	}
}
MOTION
Frames: 14
Frame Time: 0.050000
-0.874076 0.917856 1.520863 -176.835961 37.783083 -179.760712 -4.849509 -11.902181 20.508624 1.292400 -1.502127 -1.830772 25.664080 -0.898504 4.414107 0.000000 0.000000 0.000000 8.039204 -14.549059 -30.798935 -8.142781 -11.564256 22.587848 21.312562 9.241311 3.084958 0.000000 0.000000 0.000000 -6.165649 -6.057291 21.792963 3.670735 2.110639 -26.415156 2.513494 -0.659917 28.556074 -3.962965 4.907170 -39.609355 0.000000 0.000000 0.000000 -19.153366 -14.889322 -52.191617 -34.513411 29.783079 -4.352185 -35.202964 -20.680770 5.654946 0.000000 0.000000 0.000000 18.993470 -4.632596 34.341564 44.381350 41.315292 10.079327 -3.890219 19.117058 -1.638364 0.000000 0.000000 0.000000 
-0.839142 0.911935 1.488364 -177.578463 36.992517 -179.263588 -5.788545 -12.656407 21.825325 1.462070 -1.303363 -0.478598 26.108817 -0.111548 7.822291 0.000000 0.000000 0.000000 8.844819 -14.193576 -30.803769 -8.297617 -11.700474 22.529792 20.204278 8.443358 3.565619 0.000000 0.000000 0.000000 -4.931095 -5.586950 21.125799 3.750719 2.098387 -27.731162 1.182990 -1.462191 29.357673 -3.633025 4.695691 -39.898733 0.000000 0.000000 0.000000 -18.907511 -14.760683 -52.317789 -34.941352 29.242514 -4.514980 -34.611822 -21.145000 5.570004 0.000000 0.000000 0.000000 22.376502 -5.834528 37.810003 38.531104 43.466414 6.588284 -5.142527 17.582715 -1.859440 0.000000 0.000000 0.000000 
-0.801108 0.908598 1.451506 -178.487458 36.629434 -179.037467 -4.980810 -12.024879 20.626057 -0.396279 -1.775886 5.212131 24.569928 0.008188 8.841069 0.000000 0.000000 0.000000 9.029910 -13.456668 -30.014626 -10.632364 -13.098451 25.155387 21.201785 9.254204 5.072110 0.000000 0.000000 0.000000 -3.529600 -4.308995 18.924411 3.196501 2.108184 -26.561916 0.708986 -2.779459 28.104331 -3.801351 4.509884 -39.086356 0.000000 0.000000 0.000000 -18.836709 -13.682339 -52.925181 -35.375911 30.629386 -5.249493 -34.269422 -19.546398 4.830805 0.000000 0.000000 0.000000 22.912487 -6.174761 37.901332 37.913575 42.411624 5.895865 -6.108733 15.761329 -1.815020 0.000000 0.000000 0.000000 
-0.762306 0.913151 1.413025 -177.132957 36.062113 -177.345142 0.016374 -10.452261 15.344600 -6.862939 -5.247778 16.029283 24.879004 1.862160 14.410655 0.000000 0.000000 0.000000 8.328490 -11.634009 -27.373207 -10.939516 -15.615178 27.163538 21.266208 9.026430 3.622939 0.000000 0.000000 0.000000 -0.703659 -3.735335 17.421516 3.434802 2.067584 -27.901921 0.676213 -1.832750 28.831178 -4.952944 2.889044 -39.531120 0.000000 0.000000 0.000000 -19.466078 -14.365141 -55.560928 -33.559011 34.042698 -4.954975 -34.606269 -17.270508 4.426951 0.000000 0.000000 0.000000 23.139774 -7.414126 38.610485 35.700788 42.188394 5.416380 -5.388631 15.194044 -1.621399 0.000000 0.000000 0.000000 
-0.725687 0.921120 1.376423 -176.437297 35.113382 -177.673560 5.147238 -7.626176 6.379675 -21.698151 -14.117435 35.336905 26.593916 8.313700 27.497348 0.000000 0.000000 0.000000 6.751795 -8.324346 -21.803519 -9.573279 -17.493576 26.614760 22.559539 7.201325 1.386889 0.000000 0.000000 0.000000 0.218631 -4.232145 17.993864 4.222442 2.125253 -27.329772 1.286635 -0.472910 28.030658 -6.109856 1.428540 -38.454255 0.000000 0.000000 0.000000 -20.863031 -12.314551 -58.918725 -32.338815 36.699691 -4.782591 -35.439162 -14.524639 4.208193 0.000000 0.000000 0.000000 21.712689 -6.546661 39.032278 36.116435 41.749198 6.399320 -4.633975 14.092945 -1.449008 0.000000 0.000000 0.000000 
-0.692116 0.929675 1.340972 -176.545907 33.515192 -178.426601 7.983350 -5.490277 -4.272787 -45.715086 -19.913166 54.652803 38.940839 13.135377 49.028938 0.000000 0.000000 0.000000 5.248449 -5.354517 -15.386553 -6.386334 -17.790248 23.153541 22.585815 2.794172 -1.895312 0.000000 0.000000 0.000000 -0.059882 -4.661861 18.651280 4.982119 2.153045 -26.798480 1.983843 2.024549 28.178145 -5.281550 0.531630 -38.623846 0.000000 0.000000 0.000000 -19.805014 -13.053937 -61.312620 -30.531591 39.942688 -4.836566 -36.642147 -11.483297 3.549660 0.000000 0.000000 0.000000 21.625160 -7.758595 41.453545 33.392319 43.672200 6.119827 -5.338851 16.067132 -1.752743 0.000000 0.000000 0.000000 
-0.660704 0.936687 1.304664 -177.184037 32.985181 -179.636925 8.524444 -5.295719 -11.690031 -59.732257 -20.292114 59.907255 52.083724 13.567014 61.574905 0.000000 0.000000 0.000000 4.988489 -2.998036 -8.852538 -3.904362 -15.772307 18.434407 24.497709 -0.921542 -5.099618 0.000000 0.000000 0.000000 -1.771523 -5.331154 20.093554 5.250441 2.184413 -27.181809 4.095836 4.848462 28.177665 -5.342467 -0.800915 -38.381993 0.000000 0.000000 0.000000 -19.446569 -12.888545 -64.326632 -27.831320 43.281742 -4.172642 -38.469276 -9.335421 3.445070 0.000000 0.000000 0.000000 20.332962 -7.717302 43.625880 29.929351 45.129808 5.963186 -6.434853 19.278549 -2.168468 0.000000 0.000000 0.000000 
-0.631321 0.943105 1.266940 -178.712248 33.678824 179.526289 8.579212 -6.447310 -18.656518 -61.482881 -21.354027 56.553868 54.341769 13.937148 63.834432 0.000000 0.000000 0.000000 4.140494 -2.477399 -3.553130 -2.275727 -12.195333 13.511398 23.750505 -5.032387 -7.532150 0.000000 0.000000 0.000000 -2.947252 -4.912671 19.619099 4.601002 2.171002 -26.655991 5.452820 7.223209 27.818989 -6.755978 -3.085608 -37.974874 0.000000 0.000000 0.000000 -18.870485 -11.888248 -67.090988 -23.543407 46.147832 -2.950097 -38.922152 -5.490802 2.359570 0.000000 0.000000 0.000000 19.342986 -8.233726 44.849403 28.367509 47.155596 6.593847 -9.415607 22.638892 -2.927109 0.000000 0.000000 0.000000 
-0.604040 0.944872 1.228074 -179.833916 33.465391 179.144137 8.003536 -7.543532 -22.396912 -43.596922 -21.217536 43.193583 54.574406 6.024367 52.431797 0.000000 0.000000 0.000000 3.463259 -2.984466 1.558603 -1.731752 -9.399138 9.522021 27.424542 -5.974244 -9.174699 0.000000 0.000000 0.000000 -3.935003 -4.871226 19.513634 3.421781 2.075051 -26.910621 6.618999 9.304749 27.991090 -6.454850 -4.240171 -37.871421 0.000000 0.000000 0.000000 -16.731736 -11.101022 -70.488828 -19.435873 49.901330 -1.946518 -37.869825 -3.396643 1.125146 0.000000 0.000000 0.000000 18.275254 -8.878108 47.481033 23.538775 50.375471 6.037681 -13.120434 24.957472 -3.737906 0.000000 0.000000 0.000000 
-0.578693 0.942716 1.187437 179.807191 33.163207 179.553706 6.541098 -7.682087 -23.630875 -21.177435 -14.812491 26.872771 49.577067 -4.673664 36.571024 0.000000 0.000000 0.000000 2.914175 -3.809784 4.629164 -1.911343 -9.018529 9.015870 28.991567 -5.960244 -9.245771 0.000000 0.000000 0.000000 -4.574896 -4.843061 19.347458 3.341496 2.031497 -27.407059 6.951463 10.065854 28.376350 -6.398566 -4.811144 -38.079997 0.000000 0.000000 0.000000 -15.682422 -9.303620 -73.581210 -14.856303 52.545644 -0.158959 -36.953902 -0.825806 0.045038 0.000000 0.000000 0.000000 15.002662 -8.388550 47.733140 25.010827 52.693048 9.508162 -17.753931 27.030923 -4.600949 0.000000 0.000000 0.000000 
-0.554081 0.938315 1.143473 -179.840152 34.122668 -179.933088 5.896908 -6.680861 -21.859703 -9.363481 -7.844653 10.874226 44.833280 -10.130597 24.012865 0.000000 0.000000 0.000000 2.283279 -4.583363 6.724194 -2.145562 -10.781565 11.264097 30.917586 -3.210859 -9.360469 0.000000 0.000000 0.000000 -5.060681 -4.737738 19.312914 3.369268 2.067664 -27.314337 7.822892 11.667417 28.761122 -5.732146 -4.356132 -39.323142 0.000000 0.000000 0.000000 -15.240104 -9.515065 -74.274347 -14.726597 53.669719 -0.038121 -33.638893 -1.050955 -0.206079 0.000000 0.000000 0.000000 13.862424 -8.422980 47.869233 23.220122 54.367035 10.032713 -22.789224 28.015036 -5.509782 0.000000 0.000000 0.000000 
-0.529748 0.931840 1.095045 -179.726238 32.784397 179.234805 3.681959 -5.156782 -19.440084 -5.225975 -5.947802 5.071485 38.322172 -11.857357 15.405665 0.000000 0.000000 0.000000 1.351913 -6.027102 9.358039 -3.469308 -14.572956 15.674740 36.350627 0.666275 -6.931826 0.000000 0.000000 0.000000 -6.138901 -4.915428 19.306048 4.329602 2.115764 -27.069042 7.922805 11.456537 30.236645 -4.776960 -4.113201 -39.018874 0.000000 0.000000 0.000000 -13.537253 -8.491502 -77.077981 -13.903412 56.196839 0.016378 -31.291915 -0.887141 -0.712243 0.000000 0.000000 0.000000 12.325110 -7.713127 50.931463 19.861572 57.872221 10.116130 -26.099924 25.620907 -5.896160 0.000000 0.000000 0.000000 
-0.505428 0.927373 1.041864 -179.748609 33.389540 178.675734 1.287294 -3.912482 -17.839782 -4.434730 -5.729074 8.171673 37.500539 -11.434219 16.317935 0.000000 0.000000 0.000000 -1.021625 -6.786446 8.534454 -10.715097 -21.930840 27.154473 38.309999 6.344876 0.880663 0.000000 0.000000 0.000000 -7.677416 -4.729306 18.653513 4.382939 2.115521 -25.689340 9.152808 12.276999 30.578100 -4.868539 -4.370545 -38.784942 0.000000 0.000000 0.000000 -13.302260 -10.328004 -76.572102 -13.439310 56.212074 0.586074 -30.356942 -1.221029 -0.614161 0.000000 0.000000 0.000000 12.502861 -7.878433 51.796234 19.351913 58.057836 9.598938 -28.056770 24.292571 -6.087803 0.000000 0.000000 0.000000 
-0.481192 0.926135 0.987344 179.502769 34.171782 177.438560 -0.396181 -2.629813 -15.094868 -4.114720 -6.111669 11.565034 35.277241 -10.084711 16.337940 0.000000 0.000000 0.000000 -3.359537 -6.962239 2.338024 -37.385610 -31.420350 54.496212 45.037213 16.192433 21.078506 0.000000 0.000000 0.000000 -10.018228 -5.387430 19.261679 5.272069 2.131845 -26.233201 8.820132 11.639577 31.838184 -3.612712 -2.105842 -39.508869 0.000000 0.000000 0.000000 -14.341990 -10.580117 -73.619071 -18.846681 53.893217 -2.158442 -28.599668 -2.399980 -0.226967 0.000000 0.000000 0.000000 13.774821 -7.836455 49.628845 24.002615 57.176107 10.688150 -27.225740 25.889343 -6.320754 0.000000 0.000000 0.000000 
